<?xml version="1.0" standalone="no"?>
<!DOCTYPE svg PUBLIC "-//W3C//DTD SVG 20010904//EN"
 "http://www.w3.org/TR/2001/REC-SVG-20010904/DTD/svg10.dtd">
<svg version="1.0" xmlns="http://www.w3.org/2000/svg"
 width="667.000000pt" height="667.000000pt" viewBox="0 0 667.000000 667.000000"
 preserveAspectRatio="xMidYMid meet">
<metadata>
Created by potrace 1.11, written by Peter Selinger 2001-2013
</metadata>
<g transform="translate(0.000000,667.000000) scale(0.100000,-0.100000)"
fill="#000000" stroke="none">
<path d="M3215 6634 c-22 -2 -96 -9 -165 -15 -784 -68 -1494 -406 -2063 -984
-614 -622 -954 -1467 -941 -2335 10 -709 235 -1364 665 -1936 108 -145 370
-422 509 -538 522 -438 1126 -692 1820 -767 326 -35 733 -3 1090 87 458 114
887 328 1261 628 169 135 407 376 540 546 449 574 699 1296 699 2020 0 724
-250 1446 -699 2020 -120 154 -336 376 -491 506 -445 374 -1013 634 -1580 724
-215 33 -530 55 -645 44z m308 -54 c1066 -65 1997 -613 2565 -1510 263 -415
440 -947 483 -1448 13 -160 7 -555 -11 -687 -98 -712 -399 -1346 -876 -1844
-1013 -1058 -2629 -1302 -3919 -593 -532 292 -942 697 -1253 1237 -38 66 -152
305 -184 384 -177 446 -257 932 -229 1399 28 464 127 846 324 1252 68 139 84
168 152 280 70 116 210 309 289 400 221 254 410 420 676 594 155 102 189 121
348 200 408 203 835 314 1312 339 124 7 158 7 323 -3z"/>
<path d="M3291 6013 c-19 -2 -42 -15 -55 -30 -20 -23 -30 -25 -112 -28 -97 -3
-211 -22 -220 -36 -3 -5 -13 -9 -24 -9 -10 0 -20 -7 -24 -15 -3 -8 -16 -15
-29 -15 -14 0 -36 -9 -51 -21 -14 -11 -26 -18 -26 -14 0 3 -12 -1 -27 -9 -16
-8 -62 -29 -103 -47 -41 -18 -88 -43 -105 -55 -16 -12 -40 -25 -52 -28 -11 -4
-27 -13 -33 -21 -7 -8 -20 -15 -29 -16 -44 -1 -320 -216 -306 -238 2 -4 -17
-35 -44 -68 -70 -87 -200 -289 -222 -347 -11 -27 -33 -66 -49 -86 -16 -20 -34
-49 -41 -66 -20 -50 -42 -98 -50 -114 -29 -50 -49 -96 -49 -107 0 -8 -19 -42
-42 -77 -67 -97 -71 -107 -73 -177 -1 -37 -9 -80 -18 -99 -9 -18 -14 -36 -12
-40 3 -5 1 -30 -5 -57 -13 -66 -20 -173 -11 -173 4 0 8 -15 8 -32 0 -18 2 -58
4 -88 1 -30 -1 -66 -5 -79 -5 -13 -4 -21 1 -18 9 6 -2 -147 -12 -164 -4 -5 1
-12 10 -15 14 -6 14 -7 0 -18 -23 -16 -36 -190 -17 -217 7 -10 11 -19 8 -19
-3 0 1 -18 10 -40 9 -22 14 -47 10 -55 -8 -22 10 -109 34 -157 12 -24 24 -73
27 -110 3 -37 10 -65 15 -62 7 5 6 96 -2 129 -1 6 -1 35 0 65 1 30 4 47 7 38
8 -32 44 -15 59 28 8 21 14 40 14 42 0 1 4 2 8 2 10 0 9 -77 -2 -107 -4 -14
-3 -23 3 -23 5 0 12 8 14 18 3 9 5 2 6 -15 0 -18 6 -33 11 -33 6 0 10 -10 10
-23 0 -13 2 -26 5 -29 3 -3 8 -50 10 -104 6 -108 19 -225 30 -264 4 -14 8 -33
8 -42 1 -10 7 -18 14 -18 7 0 13 -7 13 -15 0 -8 5 -15 10 -15 6 0 10 -6 10
-12 0 -7 6 -25 14 -39 19 -37 39 -126 32 -144 -3 -8 -1 -15 4 -15 6 0 10 -13
10 -30 0 -23 -4 -30 -20 -30 -11 0 -20 -5 -20 -10 0 -21 -75 2 -107 33 -49 46
-63 84 -61 168 1 41 -3 83 -9 93 -7 13 -10 -8 -8 -80 2 -109 18 -155 72 -206
33 -32 101 -58 149 -58 36 0 40 -10 36 -79 -1 -14 4 -31 10 -38 6 -8 10 -40 9
-72 -1 -40 3 -63 13 -73 8 -8 17 -41 21 -74 4 -32 14 -74 21 -93 8 -18 14 -44
14 -56 0 -12 9 -34 20 -48 12 -15 20 -40 20 -62 0 -25 8 -43 26 -62 19 -19 24
-32 20 -49 -5 -18 0 -31 19 -48 14 -13 25 -31 25 -39 0 -9 20 -38 45 -64 27
-29 44 -55 41 -65 -3 -15 37 -65 85 -105 8 -6 24 -29 37 -50 22 -36 60 -63 89
-63 8 0 18 -11 23 -25 5 -14 18 -28 27 -31 42 -14 63 -29 63 -46 0 -10 7 -18
15 -18 8 0 24 -18 35 -39 11 -22 28 -42 39 -46 11 -3 26 -17 35 -30 9 -14 22
-22 30 -19 8 3 42 -8 75 -25 34 -16 61 -27 61 -23 0 3 5 1 12 -6 7 -7 22 -12
35 -12 14 0 23 -6 23 -16 0 -11 6 -14 21 -9 14 5 28 0 45 -16 13 -12 27 -20
30 -16 3 3 22 -3 41 -14 20 -11 41 -18 48 -15 17 6 87 -15 100 -31 13 -16 188
-20 240 -6 22 6 65 14 95 17 95 10 233 42 282 67 10 5 27 9 37 9 11 0 22 4 26
9 3 5 18 9 34 9 16 -1 42 9 59 21 17 11 35 21 41 21 6 0 11 7 11 15 0 13 34
39 53 40 4 0 24 17 45 38 44 44 111 97 123 97 5 0 9 7 9 15 0 9 10 19 23 24
21 8 67 62 67 78 0 5 19 24 42 43 66 56 86 80 93 111 4 16 18 37 31 45 13 9
24 24 24 33 0 9 12 36 26 61 18 31 24 53 20 73 -4 21 1 34 24 58 29 30 50 98
50 159 0 32 31 123 62 183 5 10 6 22 3 26 -2 5 2 14 10 21 18 15 50 84 60 128
5 26 13 32 55 42 37 9 59 23 90 56 51 55 56 94 6 45 -34 -33 -34 -33 -66 -16
-17 9 -34 14 -38 11 -3 -3 0 -6 6 -6 7 0 12 -5 12 -11 0 -23 -28 11 -34 42 -4
21 1 43 15 71 12 24 19 51 16 66 -3 14 -1 36 4 49 10 28 63 56 92 48 21 -6 22
-6 3 9 -11 9 -14 16 -8 16 7 0 12 9 12 20 0 12 -6 20 -12 19 -33 -4 -35 1 -20
46 11 34 18 43 27 35 13 -11 25 -3 25 17 0 7 -5 12 -12 10 -18 -3 -17 35 3
120 19 78 20 213 3 273 -4 17 -3 22 3 15 6 -5 18 -54 28 -107 9 -54 20 -98 24
-98 3 0 11 8 16 19 6 10 18 32 27 48 16 28 30 94 45 203 7 59 13 64 13 12 0
-23 5 -42 10 -42 6 0 10 23 10 50 0 33 -4 50 -12 50 -9 0 -9 3 1 9 12 8 13 16
2 53 -7 24 -21 57 -32 74 -21 34 -25 64 -9 64 6 0 9 3 8 8 -4 16 14 102 23
107 5 4 9 19 9 35 0 16 5 32 10 35 6 4 8 10 5 15 -3 5 7 18 22 30 21 16 27 29
24 52 -3 30 9 71 35 120 8 14 11 33 8 42 -3 9 -1 16 5 16 7 0 5 9 -5 25 -9 14
-14 32 -10 40 3 8 1 26 -4 39 -5 13 -6 27 -2 30 3 4 5 26 4 49 -8 127 -7 197
2 200 13 4 12 150 -2 200 -6 22 -6 37 -1 37 6 0 5 8 -1 19 -5 11 -9 37 -9 58
2 51 -8 92 -37 153 -13 27 -24 57 -24 65 0 8 -5 15 -11 15 -7 0 -9 12 -6 33 3
22 -2 41 -17 62 l-21 30 28 -18 c50 -32 32 9 -33 75 -33 33 -69 75 -80 93 -11
17 -28 40 -40 50 -11 10 -20 26 -20 35 0 23 -212 223 -272 256 -28 16 -52 18
-43 4 7 -11 -6 -13 -29 -4 -9 3 -16 14 -16 23 0 15 -73 56 -93 52 -32 -6 -206
136 -192 158 2 5 0 22 -6 39 -12 35 -64 74 -129 97 -24 9 -47 19 -50 24 -3 4
-35 27 -73 51 -49 32 -64 46 -55 53 9 6 8 7 -4 4 -9 -3 -27 2 -40 11 -13 9
-30 22 -39 27 -9 6 -28 18 -43 29 -21 14 -29 16 -40 6 -12 -9 -22 -8 -48 3
-65 27 -104 39 -138 43 -74 7 -287 12 -319 7z m610 -151 c-7 -2 -18 1 -23 6
-8 8 -4 9 13 5 13 -4 18 -8 10 -11z m49 -32 c0 -5 -5 -10 -11 -10 -5 0 -7 5
-4 10 3 6 8 10 11 10 2 0 4 -4 4 -10z m242 -352 c-7 -7 -12 -8 -12 -2 0 14 12
26 19 19 2 -3 -1 -11 -7 -17z m319 -185 c13 -16 12 -17 -3 -4 -10 7 -18 15
-18 17 0 8 8 3 21 -13z m19 -38 c7 -9 8 -15 2 -15 -5 0 -12 7 -16 15 -3 8 -4
15 -2 15 2 0 9 -7 16 -15z m80 -5 c0 -5 -4 -10 -10 -10 -5 0 -10 5 -10 10 0 6
5 10 10 10 6 0 10 -4 10 -10z m-1175 -10 c3 -6 -1 -7 -9 -4 -18 7 -21 14 -7
14 6 0 13 -4 16 -10z m65 -4 c0 -3 -4 -8 -10 -11 -5 -3 -10 -1 -10 4 0 6 5 11
10 11 6 0 10 -2 10 -4z m1065 -16 c3 -5 1 -10 -4 -10 -6 0 -11 5 -11 10 0 6 2
10 4 10 3 0 8 -4 11 -10z m-988 -6 c-3 -3 -12 -4 -19 -1 -8 3 -5 6 6 6 11 1
17 -2 13 -5z m911 -70 c-4 -3 -12 5 -18 18 -12 22 -12 22 6 6 10 -10 15 -20
12 -24z m-1143 -21 c-11 -3 -23 -10 -27 -17 -5 -7 -8 -5 -8 7 0 12 7 17 28 16
21 -1 22 -2 7 -6z m1198 -60 c-7 -2 -21 -2 -30 0 -10 3 -4 5 12 5 17 0 24 -2
18 -5z m127 -5 c0 -4 -4 -8 -9 -8 -6 0 -12 4 -15 8 -3 5 1 9 9 9 8 0 15 -4 15
-9z m-1046 -303 c3 -8 1 -15 -3 -15 -5 0 -11 7 -15 15 -3 8 -1 15 3 15 5 0 11
-7 15 -15z m206 -51 c0 -2 -7 -4 -15 -4 -8 0 -15 4 -15 10 0 5 7 7 15 4 8 -4
15 -8 15 -10z m60 6 c0 -5 -4 -10 -10 -10 -5 0 -10 5 -10 10 0 6 5 10 10 10 6
0 10 -4 10 -10z m63 -25 c-3 -9 -8 -14 -10 -11 -2 2 -18 0 -35 -4 -25 -8 -28
-7 -18 5 6 8 24 16 38 18 15 2 28 5 29 6 1 0 0 -6 -4 -14z m51 -47 c-5 -8 -1
-8 10 1 12 10 20 11 24 4 4 -6 30 -14 59 -18 51 -7 176 -65 190 -89 5 -6 25
-22 45 -34 55 -34 115 -110 179 -227 12 -22 28 -47 35 -56 33 -37 52 -125 63
-279 9 -137 13 -161 36 -205 15 -27 31 -54 36 -60 5 -5 9 -16 9 -24 0 -8 11
-37 24 -65 35 -74 53 -146 47 -185 -6 -34 -20 -47 -88 -82 -27 -14 -29 -25 -7
-33 14 -5 16 -16 11 -56 -6 -49 -6 -50 16 -39 12 6 37 22 55 36 l32 24 11 -28
c28 -70 34 -507 9 -573 -1 -3 -2 -9 -1 -14 1 -5 -2 -12 -6 -15 -9 -6 -47 -117
-48 -139 0 -7 -5 -16 -10 -20 -17 -12 -89 -150 -116 -221 -12 -31 -77 -119
-85 -113 -9 5 -20 0 -42 -17 -18 -16 -20 -24 -13 -45 8 -20 7 -24 -4 -19 -11
3 -15 -2 -15 -17 0 -22 -1 -23 -20 -5 -11 10 -20 13 -20 7 0 -6 5 -14 10 -17
19 -12 10 -26 -12 -19 -20 6 -21 5 -9 -10 12 -14 12 -16 -1 -11 -12 5 -15 -1
-15 -21 0 -16 -5 -30 -11 -32 -8 -2 -6 -12 4 -28 9 -13 12 -24 6 -24 -6 0 -14
5 -17 11 -9 14 -56 -30 -53 -49 2 -10 -9 -19 -29 -24 -18 -5 -33 -13 -33 -19
0 -6 -4 -8 -9 -5 -11 7 -23 -22 -15 -35 3 -5 -7 -9 -22 -9 -21 0 -24 -3 -15
-14 22 -27 0 -50 -46 -49 -19 1 -16 -14 8 -38 14 -14 18 -24 11 -31 -12 -12
-32 -2 -32 17 0 14 -17 15 -39 0 -10 -5 -16 -4 -19 3 -2 7 -10 12 -17 12 -21
0 -26 28 -7 40 12 8 14 13 5 16 -7 3 -13 16 -13 29 0 16 -7 25 -24 29 -15 4
-28 17 -34 35 -9 25 -8 29 4 24 26 -10 8 32 -31 75 -13 14 -26 38 -29 53 -4
20 -12 29 -25 29 -11 0 -23 5 -26 10 -3 6 -13 10 -22 10 -13 0 -13 -3 -2 -17
11 -15 10 -15 -8 1 -13 10 -20 22 -18 27 3 4 -9 15 -26 23 -41 20 -45 20 -28
-1 12 -15 12 -16 -1 -8 -8 6 -19 10 -24 10 -5 0 -11 7 -13 15 -4 13 -3 13 6 0
6 -8 11 -10 11 -4 0 5 -5 15 -12 22 -13 13 -42 17 -34 4 3 -5 -8 -6 -25 -4
-16 2 -29 9 -29 16 0 6 -5 18 -10 26 -9 13 -11 13 -20 0 -6 -10 -10 -11 -10
-2 0 6 -6 12 -14 12 -17 0 -30 30 -13 30 8 1 7 5 -3 13 -8 7 -22 21 -30 31
-14 18 -14 19 8 7 22 -12 23 -11 12 9 -7 13 -8 20 -2 17 5 -4 14 5 20 18 7 14
15 25 19 25 5 0 9 10 10 23 1 12 4 41 8 64 8 53 -14 78 -78 87 -26 4 -49 11
-52 17 -14 21 -115 -7 -115 -33 0 -4 -17 -10 -37 -14 -21 -4 -43 -11 -50 -16
-6 -5 -33 -8 -60 -7 -39 2 -57 10 -94 40 l-45 37 -58 -13 c-74 -17 -85 -27
-84 -78 0 -57 12 -75 61 -98 23 -10 37 -19 30 -19 -6 0 -24 -5 -38 -10 -23 -9
-25 -13 -15 -25 10 -12 9 -15 -4 -15 -9 0 -16 -7 -16 -15 0 -9 6 -12 18 -8 9
3 0 -6 -21 -21 -21 -14 -40 -26 -43 -26 -3 0 -15 -10 -27 -23 -12 -12 -33 -22
-47 -22 -14 0 -39 -10 -56 -22 -17 -12 -34 -19 -37 -16 -7 7 -59 -25 -69 -43
-5 -7 -16 -10 -26 -7 -11 2 -26 -2 -34 -11 -9 -8 -18 -12 -22 -9 -9 9 -46 -33
-46 -52 0 -26 -37 -89 -60 -103 -11 -7 -19 -18 -18 -25 2 -7 -12 -26 -30 -43
-40 -39 -40 -46 -2 -32 17 5 37 8 44 5 27 -10 42 38 25 78 -2 6 -1 10 3 10 4
0 14 9 22 20 9 11 16 16 16 11 0 -5 -7 -18 -17 -28 -15 -17 -15 -18 0 -18 21
0 22 -14 2 -30 -8 -7 -13 -15 -11 -19 2 -3 0 -17 -5 -30 -7 -18 -14 -22 -32
-17 -21 5 -25 0 -37 -44 -16 -58 -36 -61 -34 -7 2 41 -2 44 -25 23 -14 -12
-18 -12 -29 0 -11 12 -9 14 8 14 13 0 20 5 17 13 -5 12 -11 13 -38 2 -12 -4
-18 1 -23 21 -6 24 -8 25 -24 11 -13 -12 -20 -12 -28 -3 -6 6 -9 16 -7 21 1 6
-1 16 -6 24 -8 13 -12 13 -27 0 -12 -10 -15 -10 -10 -1 4 7 2 19 -4 27 -6 8
-9 19 -5 25 3 5 1 10 -4 10 -6 0 -11 11 -11 25 0 14 -5 25 -11 25 -5 0 -8 -4
-4 -9 3 -5 1 -12 -4 -15 -5 -3 -11 1 -15 9 -3 8 -1 17 4 20 12 7 9 64 -3 72
-6 3 -16 -2 -23 -11 -16 -22 -28 -4 -20 30 6 22 5 23 -13 12 -25 -15 -36 -6
-22 20 5 10 7 29 4 40 -3 12 0 28 6 36 14 17 0 29 -22 20 -16 -6 -32 39 -21
58 5 8 1 9 -10 5 -13 -5 -16 -1 -14 21 2 22 -1 26 -16 24 -10 -2 -15 1 -12 7
7 12 -15 101 -25 101 -4 0 -10 -8 -12 -17 -3 -11 -5 -7 -6 10 0 15 -5 27 -10
27 -5 0 -8 17 -8 38 0 21 -2 43 -6 49 -4 6 -4 18 -1 27 4 11 2 15 -8 11 -14
-6 -38 43 -38 77 0 9 -4 18 -10 20 -5 2 -12 21 -15 42 -2 22 -9 42 -15 46 -6
4 -8 14 -4 23 3 10 1 17 -5 17 -6 0 -8 7 -5 15 4 8 2 15 -3 15 -13 0 -36 139
-25 154 4 6 6 36 4 66 -17 232 5 422 54 479 2 2 25 -13 52 -33 27 -20 51 -36
54 -36 2 0 5 21 6 46 1 29 8 51 18 58 14 11 12 15 -18 38 -18 13 -44 31 -57
37 -22 12 -23 17 -18 75 5 65 69 213 115 269 7 8 11 19 10 23 -5 15 43 134 53
134 6 0 7 9 4 20 -5 15 0 22 20 30 14 5 36 10 49 10 12 0 32 9 43 20 12 11 23
15 25 9 2 -6 14 -2 28 9 17 12 43 19 80 20 30 1 73 6 95 11 22 6 60 8 85 5 32
-4 51 -1 65 10 l20 15 -20 1 c-16 0 -14 3 10 16 17 9 40 16 52 16 12 -1 28 7
35 17 7 10 20 18 28 19 54 2 70 2 112 -2 64 -6 71 10 8 17 -28 3 -58 11 -68
17 -16 11 -16 11 1 6 11 -4 17 0 17 10 0 9 6 14 13 11 6 -2 11 -10 10 -16 -2
-6 2 -11 7 -11 6 0 10 5 10 11 0 5 4 8 9 4 5 -3 12 -1 16 5 4 6 10 8 14 5 5
-2 29 6 55 20 25 13 46 23 46 21 0 -1 -11 -16 -25 -32 -32 -37 -23 -45 14 -10
30 29 86 46 78 24 -2 -7 -11 -12 -21 -10 -18 3 -22 -13 -6 -23 6 -4 31 12 56
34 26 22 51 38 57 34 5 -3 15 1 21 9 6 8 19 17 28 21 13 4 15 2 11 -11 -5 -13
0 -11 22 6 21 17 30 19 36 10 6 -9 12 -8 26 4 20 18 73 42 87 39 4 -1 14 6 21
16 7 10 19 18 27 18 7 0 38 12 68 27 30 15 71 29 90 32 19 2 60 17 90 32 41
21 69 28 110 27 30 0 58 5 63 11 5 8 10 7 16 -3 8 -12 13 -12 35 2 31 21 36
21 36 1 0 -11 6 -14 23 -9 l22 7 -22 -21 c-30 -29 -29 -35 2 -15 14 9 25 20
25 25 0 5 7 9 15 9 8 0 15 7 15 15 0 8 5 15 11 15 5 0 7 -6 3 -12z m-2454
-882 c0 -3 -4 -8 -10 -11 -5 -3 -10 -1 -10 4 0 6 5 11 10 11 6 0 10 -2 10 -4z
m75 -76 c-3 -5 -12 -10 -18 -10 -7 0 -6 4 3 10 19 12 23 12 15 0z m45 -10 c0
-5 -5 -10 -11 -10 -5 0 -7 5 -4 10 3 6 8 10 11 10 2 0 4 -4 4 -10z m-90 -14
c0 -2 -7 -7 -16 -10 -8 -3 -12 -2 -9 4 6 10 25 14 25 6z m-40 -103 c0 -1 -9
-7 -20 -13 -15 -8 -20 -8 -20 3 0 7 9 13 20 13 11 0 20 -1 20 -3z m408 -75
c14 -14 16 -58 4 -58 -16 0 -54 48 -47 59 8 14 28 14 43 -1z m39 -43 c0 -8 -4
-12 -9 -9 -5 3 -6 10 -3 15 9 13 12 11 12 -6z m3063 -5 c0 -5 -4 -10 -10 -10
-5 0 -10 5 -10 10 0 6 5 10 10 10 6 0 10 -4 10 -10z m-10 -89 c0 -10 7 -24 15
-31 8 -7 15 -18 15 -24 0 -6 7 -23 14 -38 8 -15 11 -30 6 -33 -4 -3 -10 2 -14
10 -7 19 -30 19 -46 0 -14 -16 -47 -20 -68 -6 -10 6 -11 13 -1 34 7 15 16 27
21 27 4 0 8 7 8 15 0 24 19 17 26 -10 3 -14 10 -25 15 -25 6 0 5 8 -1 19 -13
25 -13 94 0 86 6 -3 10 -14 10 -24z m-224 -28 c-10 -10 -19 5 -10 18 6 11 8
11 12 0 2 -7 1 -15 -2 -18z m-3081 -31 c-3 -3 -11 0 -18 7 -9 10 -8 11 6 5 10
-3 15 -9 12 -12z m3029 -4 c-6 -22 -42 -57 -57 -58 -15 0 -1 50 18 65 30 22
48 19 39 -7z m211 -88 c-3 -5 -11 -10 -16 -10 -6 0 -7 5 -4 10 3 6 11 10 16
10 6 0 7 -4 4 -10z m-1798 -866 c2 -6 -5 -14 -16 -17 -24 -6 -31 0 -24 19 6
17 34 15 40 -2z m-62 -4 c-3 -5 -11 -10 -16 -10 -6 0 -7 5 -4 10 3 6 11 10 16
10 6 0 7 -4 4 -10z m49 -252 c-7 -23 -7 -23 15 -4 15 14 20 15 16 5 -4 -10 1
-15 15 -16 11 -1 27 -9 36 -17 19 -20 28 -20 44 -1 16 20 102 14 125 -8 12
-13 21 -14 35 -7 26 14 26 14 55 -17 22 -24 27 -26 35 -13 9 13 12 13 21 -2 5
-10 17 -18 25 -18 8 0 17 -7 20 -15 5 -12 10 -13 20 -4 13 10 15 10 14 -6 -1
-3 17 -22 40 -42 22 -20 40 -42 40 -49 0 -24 -50 -9 -220 68 -72 32 -143 35
-192 8 -42 -24 -43 -24 -120 16 -48 25 -63 22 -301 -65 -63 -23 -103 -20 -92
7 5 13 1 12 -17 -4 l-23 -19 19 23 c11 12 25 22 31 22 7 0 15 7 19 15 3 8 0
15 -6 15 -11 0 -2 14 10 16 18 2 51 20 84 46 34 26 67 31 53 7 -4 -5 -1 -9 5
-9 7 0 10 7 6 15 -3 9 3 19 17 26 19 11 20 10 10 -3 -7 -8 -10 -18 -6 -21 11
-12 23 -8 23 8 0 8 6 12 14 9 8 -3 17 0 21 5 3 6 10 9 15 6 5 -3 21 0 37 7 15
6 32 10 36 10 4 -1 10 5 13 13 9 24 16 18 8 -7z m-411 -171 c-19 -32 -43 -47
-43 -27 0 6 5 8 12 4 8 -5 9 -2 5 9 -3 9 -1 19 5 23 7 4 6 9 -2 14 -7 5 -2 8
14 8 l26 0 -17 -31z m-123 -34 c0 -10 -20 -40 -20 -31 0 3 -3 13 -6 22 -4 11
-1 16 10 16 9 0 16 -3 16 -7z m80 -17 c0 -2 -6 -9 -13 -15 -10 -8 -14 -7 -14
4 0 8 6 15 14 15 7 0 13 -2 13 -4z m-110 -26 c0 -5 -5 -10 -11 -10 -5 0 -7 5
-4 10 3 6 8 10 11 10 2 0 4 -4 4 -10z m-70 -40 c0 -5 -5 -10 -11 -10 -5 0 -7
5 -4 10 3 6 8 10 11 10 2 0 4 -4 4 -10z m635 -25 c50 -3 108 -4 130 -2 22 1
99 1 170 -1 132 -4 165 -13 165 -47 0 -22 28 -25 67 -9 22 10 51 14 71 10 19
-3 44 0 55 5 23 13 62 -3 73 -30 14 -34 22 -81 13 -81 -5 0 -9 -11 -9 -25 0
-14 4 -25 9 -25 5 0 11 -8 14 -19 5 -21 -23 -58 -63 -83 -30 -19 -90 -13 -90
9 0 10 -6 12 -19 8 -14 -4 -21 0 -26 15 -4 14 -12 19 -22 16 -9 -4 -22 -1 -31
6 -8 7 -18 11 -21 9 -3 -2 -10 3 -15 12 -8 12 -4 22 14 42 19 20 21 28 11 34
-7 5 -13 11 -13 14 0 24 -12 43 -29 44 -10 1 -20 -2 -20 -8 -1 -5 -3 -13 -4
-19 -1 -5 -3 -13 -4 -17 0 -3 -9 1 -19 10 -15 14 -24 15 -53 6 -55 -17 -77
-19 -219 -19 -74 0 -145 0 -158 0 -13 0 -33 6 -45 12 -12 7 -42 13 -67 14 -25
0 -53 4 -62 8 -10 5 -18 4 -18 -1 0 -4 10 -13 22 -18 24 -11 36 -35 18 -35 -6
0 -31 -14 -55 -30 -24 -17 -48 -30 -52 -29 -16 4 -43 -14 -43 -27 0 -8 -7 -26
-16 -39 -9 -13 -13 -29 -9 -35 10 -16 79 -49 116 -55 74 -12 89 -17 89 -31 0
-11 6 -13 22 -8 23 7 22 6 -2 -19 -14 -15 -29 -27 -33 -27 -14 0 -67 -61 -67
-76 0 -7 -12 -21 -27 -31 -16 -10 -32 -23 -38 -29 -5 -6 -35 -24 -67 -39 -51
-25 -59 -27 -87 -15 -43 18 -178 150 -186 183 -4 15 -4 35 1 44 4 10 6 21 6
26 -1 4 3 7 9 7 6 0 9 7 5 15 -7 20 23 48 46 42 22 -6 48 17 48 43 0 13 -5 17
-15 14 -8 -4 -13 -10 -10 -14 3 -5 1 -11 -4 -14 -12 -8 -23 26 -15 48 3 9 1
16 -5 16 -8 0 -11 18 -10 50 2 36 7 50 17 50 8 0 12 6 8 15 -3 9 0 15 10 15 8
0 13 4 9 9 -3 6 3 15 12 21 15 10 14 10 -9 6 -40 -9 -26 26 22 53 35 19 43 20
107 10 95 -15 117 -14 160 9 29 16 51 19 93 16 30 -3 96 -7 145 -9z m-670 -5
c-3 -5 -12 -10 -18 -10 -7 0 -6 4 3 10 19 12 23 12 15 0z m-71 -132 c17 -32
22 -63 7 -40 -4 8 -12 12 -17 10 -5 -1 -10 12 -12 30 -4 40 2 41 22 0z m2058
-84 c-13 -9 -26 -13 -30 -9 -8 8 17 25 38 25 9 0 6 -6 -8 -16z m-691 -203 c21
-22 29 -39 29 -66 0 -43 -25 -102 -55 -128 -18 -16 -18 -18 -2 -13 15 5 17 2
11 -17 -9 -31 -14 -34 -27 -16 -7 9 -22 21 -35 28 -16 9 -21 18 -17 31 5 16 1
19 -25 17 -19 -1 -28 -7 -26 -14 3 -7 -1 -10 -10 -6 -7 3 -14 0 -14 -6 0 -23
-18 -10 -34 27 -17 36 -95 101 -83 67 4 -8 2 -15 -3 -15 -17 0 -16 57 1 75 5
5 25 8 44 7 21 -2 52 6 77 19 24 13 50 26 58 30 35 18 81 9 111 -20z m-690
-34 c-19 -19 -21 -20 -15 -3 5 13 4 17 -4 12 -7 -4 -12 -12 -12 -19 0 -6 -7
-31 -16 -54 -15 -38 -18 -41 -29 -26 -11 15 -15 15 -29 4 -14 -12 -16 -10 -16
12 0 14 5 29 10 32 6 3 10 1 10 -6 0 -7 7 -4 16 7 15 18 15 18 9 -8 -3 -16 -1
-28 5 -28 5 0 10 17 10 38 0 30 5 41 23 50 55 27 72 22 38 -11z m59 15 c0 -4
-10 -13 -22 -21 -23 -14 -23 -14 -4 8 20 22 26 25 26 13z m271 -50 c5 -14 8
-30 5 -36 -2 -6 -5 -3 -5 7 -1 10 -6 15 -11 12 -6 -4 -10 -12 -9 -18 4 -31 -1
-38 -14 -25 -8 7 -13 29 -12 50 2 23 -2 35 -8 31 -5 -3 -7 -1 -4 5 11 17 48 1
58 -26z m-330 -5 c-10 -9 -11 -8 -5 6 3 10 9 15 12 12 3 -3 0 -11 -7 -18z m41
-39 c-7 -7 -12 -8 -12 -2 0 14 12 26 19 19 2 -3 -1 -11 -7 -17z m-178 -14 c3
-8 2 -12 -4 -9 -6 3 -10 10 -10 16 0 14 7 11 14 -7z"/>
<path d="M2406 3628 c-19 -14 -42 -21 -72 -20 -24 0 -47 -4 -50 -10 -4 -6 -9
-6 -14 2 -9 15 -105 -70 -115 -101 -4 -10 -13 -19 -21 -19 -8 0 -14 -4 -14
-10 0 -18 47 -11 97 14 130 65 266 91 428 82 104 -5 196 -25 275 -59 37 -16
141 -77 164 -97 8 -6 34 -12 58 -13 l43 -2 3 48 c2 36 -2 55 -18 77 -12 17
-27 30 -34 30 -7 0 -40 11 -74 24 -52 21 -68 23 -93 14 -22 -8 -34 -7 -42 1
-6 6 -19 11 -28 11 -10 0 -19 5 -21 11 -2 6 -50 12 -118 15 -109 4 -159 8
-170 14 -13 6 -88 5 -108 -2 -15 -5 -21 -4 -17 2 11 18 -29 10 -59 -12z"/>
<path d="M3852 3615 c-5 -10 -24 -17 -45 -18 -41 -2 -42 -4 -24 -39 10 -21 17
-24 36 -16 13 4 26 6 29 3 9 -8 -6 -18 -30 -20 -18 -1 -23 -8 -24 -34 -1 -26
1 -31 15 -26 9 4 35 10 58 12 24 3 48 12 54 19 14 17 56 18 62 2 3 -7 6 -4 6
8 1 11 4 24 9 28 4 4 7 12 7 18 0 6 10 14 23 19 12 5 22 4 22 -1 0 -11 -29
-40 -41 -40 -5 0 -9 -11 -9 -25 0 -19 5 -25 21 -25 21 0 60 -17 69 -31 3 -4
25 -10 49 -13 45 -5 68 -16 35 -16 -10 0 -54 5 -98 12 -53 8 -72 14 -60 19 15
6 11 8 -13 8 -17 1 -35 -3 -38 -9 -3 -5 -11 -10 -16 -10 -6 0 -7 5 -4 10 3 6
-1 10 -9 10 -9 0 -16 -7 -16 -15 0 -8 -4 -15 -10 -15 -5 0 -7 6 -4 13 4 10 -3
12 -26 9 -28 -4 -44 -22 -19 -22 5 0 8 -3 6 -7 -3 -5 52 -8 121 -9 204 -1 348
-51 424 -147 41 -53 53 -87 66 -193 21 -182 -51 -339 -202 -436 -92 -59 -175
-81 -299 -76 -94 3 -108 6 -171 38 -141 71 -234 195 -272 359 -20 92 -16 220
10 270 26 50 88 106 140 127 25 10 46 25 46 32 0 9 -5 10 -19 2 -25 -13 -34
-13 -26 0 9 14 -1 12 -36 -6 -37 -19 -109 -83 -109 -96 0 -6 -11 -23 -25 -40
-14 -16 -25 -39 -25 -50 0 -12 -3 -19 -6 -15 -12 11 8 68 42 117 38 56 40 62
19 54 -8 -4 -15 -1 -15 5 0 10 14 15 33 12 5 -1 23 7 40 17 18 11 53 27 80 37
34 13 49 25 53 41 4 13 10 24 15 24 5 0 6 -7 3 -15 -4 -9 0 -15 8 -15 7 0 14
9 15 20 1 11 -3 20 -8 20 -6 0 -8 4 -5 8 2 4 -15 8 -40 8 -66 0 -61 24 9 39
33 7 36 30 5 40 -45 14 -89 8 -105 -15 -12 -17 -22 -21 -43 -17 -20 5 -35 -2
-63 -26 -30 -26 -38 -41 -42 -82 -4 -27 -11 -53 -17 -56 -8 -5 -7 -14 4 -31
22 -34 10 -105 -17 -94 -17 6 -21 -9 -5 -19 6 -3 10 -17 10 -30 0 -13 -4 -27
-10 -30 -14 -9 -12 -71 3 -87 7 -7 22 -52 34 -99 29 -117 122 -283 202 -360
118 -113 235 -147 401 -115 265 50 432 242 447 519 5 85 4 97 -11 98 -9 1 -21
2 -27 3 -6 0 -18 21 -26 46 -9 25 -26 58 -40 74 -29 34 -24 44 11 21 42 -28
30 0 -20 44 -46 40 -112 71 -201 92 -57 14 -84 33 -35 24 78 -13 217 -74 280
-121 24 -19 42 -24 69 -22 42 3 52 19 22 33 -12 6 -20 12 -18 15 2 3 -7 21
-21 40 -14 19 -25 37 -25 40 0 14 -95 90 -113 90 -20 0 -74 23 -142 60 -21 12
-37 16 -40 10 -7 -11 -67 -7 -109 6 -19 5 -22 4 -16 -6 5 -8 -1 -7 -16 3 -29
21 -40 22 -33 2 9 -23 -9 -18 -25 7 -12 20 -14 20 -23 4 -8 -13 -7 -21 3 -27
11 -7 10 -9 -3 -9 -10 0 -18 6 -18 13 0 20 -53 36 -68 20 -7 -7 -18 -13 -25
-13 -8 0 -8 3 2 9 8 5 9 11 3 15 -6 4 -15 -1 -20 -9z m108 -48 l35 -15 -30 -8
c-16 -4 -35 -14 -42 -23 -11 -14 -12 -13 -13 7 0 17 -6 22 -24 22 -14 0 -28 5
-31 11 -4 6 -13 8 -21 5 -8 -3 -14 -1 -14 4 0 20 90 18 140 -3z m130 -1 c0 -2
-7 -9 -15 -16 -13 -11 -14 -10 -9 4 5 14 24 23 24 12z m-190 -70 c0 -2 -17 -3
-37 -3 -32 -1 -34 0 -13 6 21 7 50 4 50 -3z m-177 -31 c-7 -21 -12 -19 -10 4
0 11 5 18 9 15 4 -3 5 -11 1 -19z m570 -71 c62 -33 12 -20 -83 19 -8 4 1 4 20
1 19 -4 47 -13 63 -20z"/>
<path d="M3766 3543 c-6 -14 -5 -15 5 -6 7 7 10 15 7 18 -3 3 -9 -2 -12 -12z"/>
<path d="M2394 3501 c-77 -22 -142 -60 -183 -106 -46 -52 -38 -66 12 -19 90
86 159 106 364 106 221 -1 347 -40 427 -134 45 -52 60 -105 51 -181 -8 -74 13
-75 32 -1 14 53 9 106 -13 142 -13 19 -13 22 1 22 8 0 15 5 15 11 0 15 -79 93
-87 86 -3 -4 0 -13 7 -22 18 -22 -4 -19 -23 3 -10 10 -39 29 -67 42 -27 13
-48 26 -45 29 2 4 -4 7 -13 8 -9 0 -55 8 -102 17 -114 21 -296 20 -376 -3z"/>
<path d="M3940 3490 c0 -5 4 -10 9 -10 6 0 13 5 16 10 3 6 -1 10 -9 10 -9 0
-16 -4 -16 -10z"/>
<path d="M2129 3433 c-1 -5 -1 -11 0 -15 0 -5 -3 -8 -7 -8 -4 0 -9 -11 -10
-25 -2 -29 6 -32 24 -7 16 20 18 62 4 62 -5 0 -11 -3 -11 -7z"/>
<path d="M3763 3413 c-39 -8 -26 -25 15 -19 20 3 40 5 45 6 4 0 7 5 7 10 0 10
-25 11 -67 3z"/>
<path d="M3166 3380 c-11 -3 -15 -9 -10 -13 10 -6 42 9 34 16 -3 3 -14 1 -24
-3z"/>
<path d="M3112 3368 c5 -15 28 -23 28 -10 0 5 -7 13 -16 16 -10 4 -14 1 -12
-6z"/>
<path d="M2020 3361 c0 -5 7 -14 15 -21 16 -14 18 -10 9 14 -6 17 -24 22 -24
7z"/>
<path d="M2167 3323 c-4 -3 -7 -11 -7 -17 0 -6 5 -5 12 2 6 6 9 14 7 17 -3 3
-9 2 -12 -2z"/>
<path d="M3122 3183 c0 -109 -10 -158 -52 -245 -34 -69 -61 -103 -132 -164
-134 -115 -304 -150 -473 -97 -74 23 -189 89 -224 128 -79 90 -133 236 -135
363 0 45 -4 82 -8 82 -12 0 -10 -148 3 -215 19 -102 133 -303 165 -291 8 3 12
2 9 -4 -8 -13 129 -100 183 -117 94 -28 255 -13 345 32 67 34 199 147 266 229
56 67 73 101 96 195 8 30 18 57 23 60 5 3 13 17 17 31 7 22 6 23 -8 12 -13
-11 -16 -8 -22 20 -8 38 -31 78 -45 78 -5 0 -9 -44 -8 -97z"/>
<path d="M4622 3269 c2 -6 8 -10 13 -10 5 0 11 4 13 10 2 6 -4 11 -13 11 -9 0
-15 -5 -13 -11z"/>
<path d="M4496 3198 c8 -28 12 -33 20 -25 9 8 -6 47 -17 47 -6 0 -7 -10 -3
-22z"/>
<path d="M3580 2613 c1 -24 26 -57 34 -44 8 13 -11 61 -24 61 -5 0 -10 -8 -10
-17z"/>
<path d="M2945 2160 c-3 -5 -1 -10 4 -10 6 0 11 5 11 10 0 6 -2 10 -4 10 -3 0
-8 -4 -11 -10z"/>
<path d="M2160 1990 c0 -5 5 -10 11 -10 5 0 7 5 4 10 -3 6 -8 10 -11 10 -2 0
-4 -4 -4 -10z"/>
<path d="M2885 1960 c-3 -5 -1 -10 4 -10 6 0 11 5 11 10 0 6 -2 10 -4 10 -3 0
-8 -4 -11 -10z"/>
<path d="M3729 5991 c22 -22 61 -37 61 -23 0 13 -45 42 -65 42 -12 0 -11 -4 4
-19z"/>
<path d="M4015 5840 c3 -5 8 -10 11 -10 2 0 4 5 4 10 0 6 -5 10 -11 10 -5 0
-7 -4 -4 -10z"/>
<path d="M5090 3060 c0 -5 5 -10 10 -10 6 0 10 5 10 10 0 6 -4 10 -10 10 -5 0
-10 -4 -10 -10z"/>
<path d="M5090 2974 c0 -8 5 -12 10 -9 6 3 10 10 10 16 0 5 -4 9 -10 9 -5 0
-10 -7 -10 -16z"/>
<path d="M5071 2881 c-11 -27 -21 -54 -21 -58 0 -5 -21 -70 -46 -144 -48 -140
-67 -219 -52 -219 4 0 8 6 8 13 0 13 76 257 117 375 29 84 26 106 -6 33z"/>
<path d="M1551 2850 c-1 -21 48 -124 55 -117 4 3 -7 34 -24 69 -17 35 -31 56
-31 48z"/>
<path d="M1606 2815 c4 -8 8 -15 10 -15 2 0 4 7 4 15 0 8 -4 15 -10 15 -5 0
-7 -7 -4 -15z"/>
<path d="M1601 2713 c0 -5 7 -24 15 -43 l14 -35 -5 34 c-3 18 -5 37 -5 42 0 5
-4 9 -10 9 -5 0 -10 -3 -9 -7z"/>
<path d="M4890 2450 c0 -5 5 -10 10 -10 6 0 10 5 10 10 0 6 -4 10 -10 10 -5 0
-10 -4 -10 -10z"/>
<path d="M4935 2280 c3 -5 8 -10 11 -10 2 0 4 5 4 10 0 6 -5 10 -11 10 -5 0
-7 -4 -4 -10z"/>
</g>
</svg>
